<svg width="28" height="28" viewBox="0 0 28 28" fill="none" xmlns="http://www.w3.org/2000/svg">
<path d="M26.88 0H1.12C0.5005 0 0 0.5005 0 1.12V26.88C0 27.4995 0.5005 28 1.12 28H26.88C27.4995 28 28 27.4995 28 26.88V1.12C28 0.5005 27.4995 0 26.88 0ZM14.0385 14.2135L7.3185 19.8485C7.1365 20.0025 6.86 19.873 6.86 19.635V17.4405C6.86 17.36 6.8985 17.2795 6.9615 17.227L10.8045 14L6.9615 10.773C6.92933 10.7476 6.90344 10.7151 6.88584 10.6781C6.86824 10.6411 6.8594 10.6005 6.86 10.5595V8.365C6.86 8.127 7.1365 7.9975 7.3185 8.1515L14.0385 13.783C14.175 13.895 14.175 14.1015 14.0385 14.2135ZM21.14 19.635C21.14 19.789 21.021 19.915 20.8775 19.915H14.4025C14.259 19.915 14.14 19.789 14.14 19.635V17.955C14.14 17.801 14.259 17.675 14.4025 17.675H20.8775C21.021 17.675 21.14 17.801 21.14 17.955V19.635Z" fill="white
"/>
</svg>
