<svg width="151" height="28" viewBox="0 0 151 28" fill="none" xmlns="http://www.w3.org/2000/svg">
<g clip-path="url(#clip0_2_35)">
<mask id="mask0_2_35" style="mask-type:luminance" maskUnits="userSpaceOnUse" x="0" y="0" width="151" height="28">
<path d="M151 0H0V28H151V0Z" fill="white"/>
</mask>
<g mask="url(#mask0_2_35)">
<path d="M26.88 0H1.12C0.5005 0 0 0.5005 0 1.12V26.88C0 27.4995 0.5005 28 1.12 28H26.88C27.4995 28 28 27.4995 28 26.88V1.12C28 0.5005 27.4995 0 26.88 0ZM14.0385 14.2135L7.3185 19.8485C7.1365 20.0025 6.86 19.873 6.86 19.635V17.4405C6.86 17.36 6.8985 17.2795 6.9615 17.227L10.8045 14L6.9615 10.773C6.92933 10.7476 6.90344 10.7151 6.88584 10.6781C6.86824 10.6411 6.8594 10.6005 6.86 10.5595V8.365C6.86 8.127 7.1365 7.9975 7.3185 8.1515L14.0385 13.783C14.175 13.895 14.175 14.1015 14.0385 14.2135ZM21.14 19.635C21.14 19.789 21.021 19.915 20.8775 19.915H14.4025C14.259 19.915 14.14 19.789 14.14 19.635V17.955C14.14 17.801 14.259 17.675 14.4025 17.675H20.8775C21.021 17.675 21.14 17.801 21.14 17.955V19.635Z" fill="black"/>
<path d="M48.9471 26.696L47.647 21.3673H40.4126L39.1125 26.696H33L40.556 2H47.647L55.2015 26.696H48.9471ZM44.0124 6.20535L41.3397 17.1272H46.6851L44.0124 6.20535ZM69.0996 19.2306C69.0996 18.3629 68.9304 17.6768 68.5922 17.1725C68.254 16.6671 67.7788 16.3078 67.1668 16.0943C66.5547 15.8799 65.839 15.7727 65.0195 15.7727H62.6141V22.4378H64.7704C65.3402 22.4378 65.8838 22.3961 66.4012 22.3125C66.9176 22.229 67.3807 22.0744 67.7904 21.849C68.2001 21.6235 68.5207 21.2998 68.7523 20.878C68.9838 20.4562 69.0996 19.9071 69.0996 19.2306ZM68.1739 8.89466C68.1739 7.92121 67.8679 7.21755 67.2559 6.78368C66.6438 6.35081 65.6965 6.13438 64.414 6.13438H62.6141V11.8527H64.5922C65.8516 11.8527 66.7631 11.6212 67.3268 11.1581C67.8916 10.6951 68.1739 9.94059 68.1739 8.89466ZM75.123 19.4616C75.123 20.8871 74.8496 22.0689 74.303 23.0071C73.7564 23.9453 73.0079 24.6817 72.0577 25.2162C71.1074 25.7508 70.0237 26.1308 68.8066 26.3563C67.5886 26.5828 66.3086 26.696 64.9667 26.696H56.7704V2H64.5922C65.8626 2 67.0651 2.10369 68.1996 2.31106C69.3341 2.51944 70.3408 2.86422 71.2196 3.34541C72.0994 3.8266 72.7915 4.47388 73.2959 5.28727C73.8012 6.10066 74.0539 7.10732 74.0539 8.30727C74.0539 9.2928 73.846 10.1449 73.4302 10.8637C73.0145 11.5825 72.4618 12.1709 71.7723 12.6289C71.0837 13.0859 70.3353 13.4151 69.5269 13.6164C70.4067 13.7594 71.277 14.0357 72.1377 14.4454C72.9994 14.8551 73.7121 15.4642 74.2758 16.2725C74.8406 17.0799 75.123 18.1429 75.123 19.4616ZM95.6846 26.696H89.8394V16.2891H83.8538V26.696H78.0086V2H83.8538V11.4783H89.8394V2H95.6846V26.696ZM100.21 2H116.246V6.27632H111.15V22.4016H116.246V26.696H100.21V22.4016H105.306V6.27632H100.21V2Z" fill="black"/>
</g>
</g>
<defs>
<clipPath id="clip0_2_35">
<rect width="151" height="28" fill="white"/>
</clipPath>
</defs>
</svg>
